# xmcd
#
# Track frame offsets: 
#        150
#        13335
#        27365
#        41285
#        54198
#        69434
#        83643
#        97990
#        113023
#        127298
#        141313
#        155407
#        169781
#        184144
#        198610
#        213340
#        226849
#        240562
#        254566
#        269330
#        283365
#        296740
#        310343
#        325053
#        338523
#
# Disc length: 4699 seconds
#
# Revision: 0
# Processed by: cddbd v1.5.1PL0 Copyright (c) Steve Scherf et al.
# Submitted via: ExactAudioCopy v0.95a5
#
DISCID=70125919
DTITLE=Charlie Patton - Founder of the Delta Blues
DYEAR=1929
DGENRE=Blues
TTITLE0=Down the Dirt Road Blues
TTITLE1=Mississippi Bo Weavil Blues
TTITLE2=Screamin' and Hollerin' The Blues
TTITLE3=Stone Pony Blues
TTITLE4=It Won't Be Long
TTITLE5=Shake It  Break It
TTITLE6=Magnolia Blue
TTITLE7=Dry Well Blues
TTITLE8=High Water Everywher Part 1
TTITLE9=High Water Everywher Part 2
TTITLE10=Green River Blues
TTITLE11=Bird Nest Bound
TTITLE12=High Sheriff Blues
TTITLE13=A Spoonful Blues
TTITLE14=Moon Going Down
TTITLE15=PonyBlues
TTITLE16=Elder Green Blues
TTITLE17=Banty Rooster Blues
TTITLE18=Some of These Days
TTITLE19=Tom Rushen Blues
TTITLE20=34 Bulls
TTITLE21=Going to Move to Alabama
TTITLE22=Hammer Blues
TTITLE23=Poor Me
TTITLE24=When Your Ways Get Dark
EXTD=
EXTT0=
EXTT1=
EXTT2=
EXTT3=
EXTT4=
EXTT5=
EXTT6=
EXTT7=
EXTT8=
EXTT9=
EXTT10=
EXTT11=
EXTT12=
EXTT13=
EXTT14=
EXTT15=
EXTT16=
EXTT17=
EXTT18=
EXTT19=
EXTT20=
EXTT21=
EXTT22=
EXTT23=
EXTT24=
PLAYORDER=
